<svg width="90" height="66" viewBox="0 0 90 66" fill="none" xmlns="http://www.w3.org/2000/svg">
<g opacity="0.2">
<path d="M56.7257 64.0811C56.4456 64.0728 56.2396 64.1973 56.1243 64.4546C55.0452 64.4961 53.9578 64.5376 52.8786 64.5791C52.1784 64.3965 51.4782 64.2056 50.778 64.023C49.9707 47.6567 50.984 31.2987 50.9428 14.9324C50.9345 11.1147 50.984 7.28875 51.1405 3.47106C51.1981 2.03527 50.465 -0.0727625 53.2411 0.0019316C55.6877 0.0683263 57.014 1.00615 56.9234 3.71174C56.7586 8.75773 56.7504 13.8037 56.701 18.8497C56.6927 19.6299 56.7916 20.41 57.4588 21.381C59.7242 16.1109 62.0308 10.8575 64.2385 5.56249C65.0705 3.56235 65.4165 1.02275 68.1843 1.03105C70.6639 1.03935 70.7628 3.58725 71.3888 5.22222C78.2344 23.0077 83.8195 41.233 89.3553 59.4584C89.7507 60.7614 90.9946 62.7366 88.3915 63.4919C85.9449 64.2056 83.7372 64.1475 82.7404 61.2345C80.0549 53.3833 77.4024 45.5321 74.758 37.6643C73.9343 35.216 73.127 32.7511 72.4268 30.2613C71.9984 28.7259 71.1746 28.1782 69.5518 28.0371C62.3026 27.398 61.8413 27.8213 64.5268 34.6434C67.7725 42.868 71.3806 50.9599 74.5439 59.2094C75.0464 60.529 77.3282 63.1516 74.5439 63.857C72.0231 64.4878 68.3738 65.6165 66.6356 61.915C64.3291 56.9935 62.2367 51.9724 60.0537 46.9928C59.2135 44.2872 58.2332 41.648 56.2644 38.7764C56.0749 42.2373 55.9596 44.9926 56.7421 47.7148C56.7257 53.1758 56.7257 58.6285 56.7257 64.0811ZM68.0278 15.3225C66.9734 18.6588 63.7689 20.1859 65.0705 22.8915C65.5318 23.8459 69.1152 24.0534 69.9225 22.8832C71.4959 20.6175 69.0658 18.5676 68.0278 15.3225Z" fill="white"/>
<path d="M25.1666 9.67928C21.7809 9.5299 18.3952 9.422 15.0177 9.22282C12.5793 9.08173 11.5084 10.2602 11.5249 12.5924C11.5743 20.0452 12.2251 27.5063 12.3404 34.9176C12.4805 43.939 13.4278 52.9437 13.0571 61.9734C12.983 63.8408 11.8791 64.2225 10.3963 64.2474C8.2298 64.2889 6.07151 64.2972 3.90499 64.3138C-0.320966 63.2515 1.28539 59.4836 0.478093 56.8444C0.420429 55.724 0.362765 54.5953 0.305101 53.4749C-0.34568 38.312 0.107396 23.1823 1.07121 8.05261C1.34305 3.77015 2.8588 1.936 7.33188 1.44634C12.8017 0.848787 18.2222 1.70362 23.7085 0.964978C28.1651 0.367425 28.5935 1.38824 27.3908 5.91968C27.0448 7.25588 27.6379 9.4884 25.1666 9.67928Z" fill="white"/>
<path d="M47.9773 63.3344C41.8237 65.044 40.5221 63.683 41.1647 55.8401C41.3624 53.3918 41.3953 50.9933 41.0329 48.5782C41.0164 47.3582 41.0493 46.1299 40.9834 44.9182C40.6292 38.4447 40.621 38.3866 34.2285 37.9716C31.6501 37.8056 30.0602 36.6935 29.9449 34.0792C29.4836 24.0204 29.9366 13.9616 30.2002 3.90282C30.2744 1.11425 32.3338 1.6288 34.0308 1.6703C35.8184 1.7201 37.5153 1.7201 37.4494 4.44228C37.2929 10.9656 37.3753 17.4888 37.3671 24.0204C37.3424 25.6554 37.3259 27.2821 37.3012 28.917C37.3341 29.7387 37.3671 30.5603 37.4 31.3819C41.7001 33.2078 42.771 32.8841 42.8369 29.3818C42.9687 21.8294 42.6886 14.2853 41.799 6.77439C42.0708 4.87385 41.2306 2.46704 43.1417 1.26363C46.0991 -0.595418 48.8505 1.18894 48.834 4.81575C48.7928 18.5761 48.6857 32.3364 48.5951 46.0967C47.7301 51.0182 48.1173 55.9812 48.1255 60.9276C48.0761 61.7243 48.0267 62.5293 47.9773 63.3344Z" fill="white"/>
<path d="M25.1089 37.8799C22.7282 38.0043 22.3905 39.4152 22.5305 41.5067C22.9342 47.9055 23.066 54.3209 23.5108 60.7196C23.7332 63.9398 21.9292 64.2801 19.499 64.2967C17.1019 64.3133 15.2978 64.0809 15.2648 60.8773C15.1001 45.5982 14.1116 30.3192 15.4543 15.0484C26.6329 15.0069 27.4814 15.9281 27.712 27.3895C27.7862 31.1823 27.2507 34.7012 25.1089 37.8799ZM22.8683 28.6842C22.9012 28.6842 22.9259 28.6842 22.9589 28.6759C22.86 27.3314 22.8024 25.9786 22.6458 24.6424C22.5388 23.7046 22.3328 22.5925 21.1548 22.5842C19.7791 22.5676 19.4249 23.6548 19.4908 24.8416C19.6144 27.1322 19.7709 29.4145 19.9439 31.7052C20.018 32.6264 20.4793 33.1575 21.5008 33.1077C22.547 33.0496 22.8683 32.4355 22.8765 31.5143C22.8765 30.5764 22.8683 29.6303 22.8683 28.6842Z" fill="white"/>
<path d="M35.7113 49.7648C37.0046 50.1798 38.7181 49.8727 38.4874 52.2878C38.2815 54.454 36.9799 54.3461 35.4724 54.6365C33.6848 54.9851 30.3732 53.8481 30.4638 56.2881C30.5792 59.2012 33.7919 57.3836 35.5383 57.4998C38.2073 57.6741 39.0064 58.338 38.6357 61.2013C38.3226 63.633 37.9108 64.5957 35.3735 63.7409C33.8907 63.243 32.5562 64.1393 31.1476 64.5957C27.5477 65.766 26.1638 64.7202 25.9496 60.8942C25.686 56.2798 25.4306 51.6571 25.2988 47.0343C25.2411 45.1587 25.167 43.1917 26.485 41.5817C29.2776 41.1169 32.0537 41.4406 34.8381 41.6813C36.0985 42.3037 37.779 41.5485 38.8087 42.9096C38.8499 43.4324 38.891 43.947 38.9322 44.4698C38.0343 45.3911 37.1529 46.3289 35.7195 46.2957C33.9896 46.2708 31.3453 45.2002 31.0817 47.5987C30.8098 50.0719 33.6354 49.5158 35.3323 49.8229C35.4477 49.8478 35.5795 49.7814 35.7113 49.7648Z" fill="white"/>
</g>
</svg>
