<svg width="192" height="39" viewBox="0 0 192 39" fill="none" xmlns="http://www.w3.org/2000/svg">
<g clip-path="url(#clip0_1_5074)">
<g clip-path="url(#clip1_1_5074)">
<path d="M48.3628 31.6876V12.1215C48.3628 9.64268 49.7375 8.552 51.9168 8.552H67.9771V13.1791H55.9738C54.8003 13.1791 54.398 13.5757 54.398 14.7325V31.6876H48.3628Z" fill="#C51E5A"/>
<path d="M69.9316 31.6874V12.1212C69.9316 9.64244 71.3063 8.55176 73.4857 8.55176H85.9584C91.1554 8.55176 92.2953 11.7577 92.2953 16.3848C92.2953 21.0119 91.1554 24.284 85.9584 24.284H75.9668V31.6874H69.9316ZM82.8402 19.6568C85.3549 19.6568 86.126 18.6984 86.126 16.3848C86.126 14.0712 85.3549 13.1789 82.8402 13.1789H77.5427C76.3692 13.1789 75.9668 13.5755 75.9668 14.7323V19.6568H82.8402Z" fill="#C51E5A"/>
<path d="M114.002 13.0467H101.932C100.758 13.0467 100.356 13.4433 100.356 14.6001V17.806H113.7V22.1026H100.356V25.639C100.356 26.7958 100.758 27.1924 101.932 27.1924H114.136V31.6874H97.8746C95.6952 31.6874 94.3206 30.6297 94.3206 28.1509V12.1212C94.3206 9.64244 95.6952 8.55176 97.8746 8.55176H114.002V13.0467Z" fill="#C51E5A"/>
<path d="M131.954 31.6874V22.2018H121.56C117.872 22.2018 115.994 20.1526 115.994 16.517V8.55176H121.996V15.0628C121.996 17.0458 122.532 17.5746 124.544 17.5746H131.954V8.55176H137.955V31.6874H131.954Z" fill="#C51E5A"/>
<path d="M141.006 8.55176H147.041V31.6874H141.006V8.55176ZM157.77 31.6874L149.187 22.7967C148.315 21.8712 148.181 20.8797 148.181 19.8221C148.181 18.8636 148.517 17.9382 149.12 17.2441L156.731 8.55176H163.973L154.82 18.0704C154.25 18.6323 153.915 19.095 153.915 19.789C153.915 20.5162 154.418 21.078 155.088 21.739L165.18 31.6874H157.77Z" fill="#C51E5A"/>
<path d="M174.088 10.9978C174.86 9.17997 175.832 8.2876 178.715 8.2876C180.828 8.2876 182.37 8.75031 183.309 10.9978L192.093 31.6876H185.756L183.644 26.3995H173.753L171.641 31.6876H165.337L174.088 10.9978ZM175.228 21.9045H182.169L179.185 14.5673C179.051 14.2037 178.95 13.8401 178.715 13.8401C178.481 13.8401 178.347 14.2037 178.212 14.5673L175.228 21.9045Z" fill="#C51E5A"/>
</g>
<g clip-path="url(#clip2_1_5074)">
<path d="M27.3053 0C22.0073 0 16.7824 1.411 12.1939 4.08145C7.60545 6.75189 3.78049 10.606 1.13097 15.2307C-0.37699 17.8638 -0.37699 21.1362 1.13097 23.7693C3.77943 28.394 7.60545 32.2492 12.1929 34.9186C16.7813 37.5879 22.0063 39 27.3042 39C30.3212 39 33.1328 37.3638 34.6407 34.7307C37.2892 30.106 38.6902 24.8398 38.6902 19.5C38.6902 14.1602 37.2902 8.89294 34.6418 4.26929C33.1328 1.63621 30.3223 0 27.3053 0Z" fill="#C51E5A"/>
<path d="M30.7678 11.6018H19.3311H15.0952L9.16504 17.5788L6.95923 26.174C10.2505 30.0324 14.5477 32.8618 19.3311 34.3625V21.8481L21.9276 24.4097H23.5669V21.8481L26.1635 24.4097H27.8028V21.8481L30.3993 24.4097H32.0386V21.8481V12.8826C32.0386 12.175 31.4699 11.6018 30.7678 11.6018Z" fill="white"/>
<path d="M13.6134 17.5788H9.16577L15.096 11.6018V16.0846C15.0949 16.9096 14.432 17.5788 13.6134 17.5788Z" fill="#2E3192"/>
<path d="M32.0383 12.8826V15.4442L28.2261 11.6018H30.7676C31.4697 11.6018 32.0383 12.175 32.0383 12.8826Z" fill="#2E3192"/>
<path d="M19.3308 16.2982C20.0326 16.2982 20.6016 15.7247 20.6016 15.0174C20.6016 14.31 20.0326 13.7366 19.3308 13.7366C18.629 13.7366 18.0601 14.31 18.0601 15.0174C18.0601 15.7247 18.629 16.2982 19.3308 16.2982Z" fill="#2E3192"/>
<path d="M7.75557 23.0701L6.95923 26.1728C10.2505 30.0311 14.5477 32.8606 19.3311 34.3613V31.6567C14.7436 30.044 10.6836 27.0651 7.75557 23.0701Z" fill="#2E3192"/>
<path d="M21.0254 34.6561C21.7272 34.6561 22.2961 34.0826 22.2961 33.3753C22.2961 32.6679 21.7272 32.0945 21.0254 32.0945C20.3236 32.0945 19.7546 32.6679 19.7546 33.3753C19.7546 34.0826 20.3236 34.6561 21.0254 34.6561Z" fill="white"/>
</g>
</g>
<defs>
<clipPath id="clip0_1_5074">
<rect width="192" height="39" fill="white"/>
</clipPath>
<clipPath id="clip1_1_5074">
<rect width="143.637" height="23.4" fill="white" transform="translate(48.3628 8.2876)"/>
</clipPath>
<clipPath id="clip2_1_5074">
<rect width="38.6902" height="39" fill="white"/>
</clipPath>
</defs>
</svg>
