<svg width="24" height="18" viewBox="0 0 24 18" fill="none" xmlns="http://www.w3.org/2000/svg">
<path d="M23.4937 3.44311C23.3571 2.92213 23.0897 2.44711 22.7181 2.06561C22.3466 1.6841 21.884 1.40949 21.3766 1.26926C19.5082 0.75 12 0.75 12 0.75C12 0.75 4.49183 0.75 2.62336 1.26926C2.11599 1.40949 1.6534 1.6841 1.28186 2.06561C0.910331 2.44711 0.642899 2.92213 0.506332 3.44311C0.157447 5.39981 -0.0118575 7.38582 0.00064491 9.375C-0.0118575 11.3642 0.157447 13.3502 0.506332 15.3069C0.642899 15.8279 0.910331 16.3029 1.28186 16.6844C1.6534 17.0659 2.11599 17.3405 2.62336 17.4807C4.49183 18 12 18 12 18C12 18 19.5082 18 21.3766 17.4807C21.884 17.3405 22.3466 17.0659 22.7181 16.6844C23.0897 16.3029 23.3571 15.8279 23.4937 15.3069C23.8426 13.3502 24.0119 11.3642 23.9994 9.375C24.0119 7.38582 23.8426 5.39981 23.4937 3.44311ZM9.60013 13.0714V5.67857L15.8312 9.375L9.60013 13.0714Z" fill="#C51E5A"/>
</svg>
